Normalized EMG Linear Envelopes
nRows=108
nColumns=4

endheader
time	 med_gas_r	  soleus_r	 tib_ant_r	
3.07762	  0.013018	  0.023026	  0.006959	
3.14919	  0.012433	  0.022560	  0.005997	
3.22077	  0.012526	  0.022554	  0.005531	
3.29234	  0.012893	  0.021757	  0.005523	
3.36391	  0.013337	  0.020386	  0.005874	
3.43548	  0.013735	  0.019623	  0.006297	
3.50706	  0.013223	  0.019288	  0.006910	
3.57863	  0.012217	  0.019581	  0.007838	
3.6502	  0.011740	  0.021242	  0.008244	
3.72177	  0.011791	  0.023473	  0.007404	
3.79335	  0.011916	  0.024346	  0.006588	
3.86492	  0.012356	  0.024256	  0.006737	
3.93649	  0.012977	  0.024862	  0.007845	
4.00806	  0.013365	  0.026159	  0.009074	
4.07964	  0.013588	  0.026402	  0.008955	
4.15121	  0.013791	  0.026577	  0.008272	
4.22278	  0.014281	  0.025838	  0.008270	
4.29435	  0.014935	  0.025468	  0.008969	
4.36593	  0.015283	  0.025375	  0.008934	
4.4375	  0.015361	  0.024987	  0.007887	
4.50907	  0.015468	  0.024377	  0.006816	
4.58065	  0.015540	  0.025233	  0.006221	
4.65222	  0.015003	  0.027762	  0.006091	
4.72379	  0.014489	  0.030633	  0.006537	
4.79536	  0.014142	  0.031650	  0.007716	
4.86694	  0.013685	  0.029630	  0.009007	
4.93851	  0.012959	  0.024226	  0.009164	
5.01008	  0.012076	  0.018316	  0.008494	
5.08165	  0.012799	  0.019799	  0.009103	
5.15323	  0.017941	  0.036959	  0.011918	
5.2248	  0.031028	  0.078144	  0.016515	
5.29637	  0.053299	  0.142133	  0.023265	
5.36794	  0.080525	  0.208020	  0.030163	
5.43952	  0.110782	  0.252674	  0.034298	
5.51109	  0.149817	  0.287834	  0.037320	
5.58266	  0.192897	  0.322819	  0.040192	
5.65423	  0.224669	  0.351431	  0.041878	
5.72581	  0.249670	  0.370581	  0.043718	
5.79738	  0.274768	  0.384542	  0.046256	
5.86895	  0.290797	  0.397727	  0.047506	
5.94052	  0.300377	  0.420061	  0.046510	
6.0121	  0.309031	  0.449827	  0.044635	
6.08367	  0.323055	  0.479157	  0.043264	
6.15524	  0.338995	  0.507671	  0.043498	
6.22681	  0.349651	  0.510718	  0.045488	
6.29839	  0.351055	  0.497980	  0.048160	
6.36996	  0.355574	  0.491672	  0.049712	
6.44153	  0.371933	  0.484165	  0.049898	
6.5131	  0.402336	  0.477300	  0.050342	
6.58468	  0.440913	  0.487816	  0.051538	
6.65625	  0.465448	  0.525788	  0.052906	
6.72782	  0.467729	  0.567064	  0.055148	
6.7994	  0.445499	  0.583764	  0.056569	
6.87097	  0.427826	  0.587389	  0.057052	
6.94254	  0.418604	  0.579987	  0.057228	
7.01411	  0.393144	  0.553153	  0.057273	
7.08569	  0.370236	  0.538200	  0.058317	
7.15726	  0.361660	  0.547334	  0.058639	
7.22883	  0.368124	  0.553405	  0.059210	
7.3004	  0.380096	  0.539275	  0.060049	
7.37198	  0.389293	  0.527846	  0.059648	
7.44355	  0.387497	  0.534579	  0.059472	
7.51512	  0.378833	  0.555924	  0.059848	
7.58669	  0.361267	  0.590471	  0.059869	
7.65827	  0.359870	  0.622493	  0.059866	
7.72984	  0.388633	  0.621007	  0.059121	
7.80141	  0.437707	  0.577987	  0.058307	
7.87298	  0.483698	  0.539127	  0.058425	
7.94456	  0.494515	  0.525842	  0.058256	
8.01613	  0.466669	  0.520167	  0.057028	
8.0877	  0.427221	  0.503128	  0.055883	
8.15927	  0.386432	  0.477150	  0.055571	
8.23085	  0.351276	  0.464061	  0.055208	
8.30242	  0.330931	  0.471604	  0.055273	
8.37399	  0.318368	  0.475394	  0.055718	
8.44556	  0.310212	  0.465211	  0.055179	
8.51714	  0.316102	  0.461190	  0.053882	
8.58871	  0.332053	  0.465980	  0.052725	
8.66028	  0.339130	  0.458566	  0.051596	
8.73185	  0.324474	  0.452039	  0.049013	
8.80343	  0.309298	  0.459994	  0.047070	
8.875	  0.311442	  0.476875	  0.046975	
8.94657	  0.317897	  0.496532	  0.047657	
9.01815	  0.321167	  0.505810	  0.048004	
9.08972	  0.319611	  0.499645	  0.047697	
9.16129	  0.317165	  0.483837	  0.047805	
9.23286	  0.309479	  0.467556	  0.047261	
9.30444	  0.293960	  0.455872	  0.046557	
9.37601	  0.290889	  0.464117	  0.046771	
9.44758	  0.287316	  0.481365	  0.047245	
9.51915	  0.279363	  0.489295	  0.046250	
9.59073	  0.266562	  0.470756	  0.043965	
9.6623	  0.251429	  0.428704	  0.041095	
9.73387	  0.231362	  0.383174	  0.038410	
9.80544	  0.204338	  0.337922	  0.036086	
9.87702	  0.177571	  0.301016	  0.035281	
9.94859	  0.158762	  0.277708	  0.035458	
10.0202	  0.146228	  0.259175	  0.034971	
10.0917	  0.138305	  0.242180	  0.033508	
10.1633	  0.131282	  0.218909	  0.030985	
10.2349	  0.117826	  0.188147	  0.027880	
10.3065	  0.097112	  0.152393	  0.024918	
10.378	  0.075169	  0.121489	  0.021432	
10.4496	  0.053605	  0.097059	  0.018088	
10.5212	  0.035660	  0.073771	  0.015888	
10.5927	  0.024489	  0.054939	  0.014000	
10.6643	  0.017663	  0.038073	  0.012199	
10.7359	  0.013802	  0.024224	  0.012853	
